<svg width="1024" height="1024" viewBox="0 0 1024 1024" fill="none" xmlns="http://www.w3.org/2000/svg">
<rect width="1024" height="1024" fill="#FBAF02"/>
<mask id="mask0" mask-type="alpha" maskUnits="userSpaceOnUse" x="48" y="48" width="928" height="928">
<circle cx="512" cy="512" r="464" fill="white"/>
</mask>
<g mask="url(#mask0)">
<circle cx="254" cy="874" r="464" fill="white"/>
<path d="M183.884 418.008V496.392H268.892V418.008H301.46V609H268.892V523.992H183.884V609H151.592V418.008H183.884ZM359.021 421.044V453.06H327.557V421.044H359.021ZM359.021 471.828V609H327.557V471.828H359.021ZM411.041 548.832C411.777 553.432 413.065 557.94 414.905 562.356C416.929 566.588 419.321 570.452 422.081 573.948C424.841 577.26 427.969 579.928 431.465 581.952C435.145 583.976 439.009 584.988 443.057 584.988C457.961 584.988 468.357 576.432 474.245 559.32H503.777C502.121 567.6 499.269 574.96 495.221 581.4C491.357 587.84 486.665 593.36 481.145 597.96C475.809 602.376 469.829 605.78 463.205 608.172C456.765 610.38 450.049 611.484 443.057 611.484C433.121 611.484 424.197 609.552 416.285 605.688C408.373 601.64 401.565 596.304 395.861 589.68C390.157 583.056 385.741 575.328 382.613 566.496C379.669 557.664 378.197 548.28 378.197 538.344C378.197 529.144 379.669 520.404 382.613 512.124C385.741 503.844 390.065 496.576 395.585 490.32C401.289 483.88 408.097 478.82 416.009 475.14C423.921 471.276 432.845 469.344 442.781 469.344C452.349 469.344 460.997 471.092 468.725 474.588C476.453 477.9 482.985 482.592 488.321 488.664C493.841 494.552 498.073 501.636 501.017 509.916C503.961 518.012 505.433 526.844 505.433 536.412V548.832H411.041ZM472.589 524.268C471.485 515.988 468.173 509.272 462.653 504.12C457.317 498.968 450.233 496.392 441.401 496.392C437.537 496.392 433.857 497.128 430.361 498.6C427.049 500.072 424.105 502.096 421.529 504.672C418.953 507.248 416.745 510.192 414.905 513.504C413.249 516.816 412.053 520.404 411.317 524.268H472.589ZM642.063 606.792H610.599V596.58C604.895 600.812 598.731 603.94 592.107 605.964C585.483 607.988 578.767 609 571.959 609C558.159 609 547.303 605.136 539.391 597.408C531.479 589.68 527.523 579.192 527.523 565.944V469.344H559.263V563.46C559.263 570.268 560.735 575.144 563.679 578.088C566.623 580.848 570.671 582.228 575.823 582.228C580.607 582.228 585.115 581.4 589.347 579.744C593.579 577.904 597.259 575.604 600.387 572.844C603.515 569.9 605.999 566.588 607.839 562.908C609.679 559.044 610.599 555.088 610.599 551.04V469.344H642.063V606.792ZM183.884 657.008V735.392H268.892V657.008H301.46V848H268.892V762.992H183.884V848H151.592V657.008H183.884ZM330.041 754.988C330.593 746.892 332.617 739.9 336.113 734.012C339.609 728.124 343.933 723.34 349.085 719.66C354.421 715.796 360.309 712.944 366.749 711.104C373.189 709.264 379.629 708.344 386.069 708.344C393.245 708.344 400.145 709.172 406.769 710.828C413.393 712.3 419.281 714.784 424.433 718.28C429.585 721.776 433.725 726.192 436.853 731.528C439.981 736.864 441.545 743.396 441.545 751.124V818.192C441.545 819.664 441.821 821.044 442.373 822.332C442.925 823.436 443.569 823.988 444.305 823.988C444.673 823.988 445.961 823.62 448.169 822.884C450.377 822.148 453.321 821.32 457.001 820.4V846.62C452.585 848.092 448.997 849.104 446.237 849.656C443.477 850.208 440.533 850.484 437.405 850.484C432.069 850.484 427.377 849.288 423.329 846.896C419.281 844.32 416.245 840.088 414.221 834.2C407.229 840.456 400.053 844.78 392.693 847.172C385.517 849.38 378.249 850.484 370.889 850.484C364.817 850.484 359.021 849.564 353.501 847.724C348.165 845.7 343.473 842.94 339.425 839.444C335.561 835.764 332.433 831.44 330.041 826.472C327.833 821.504 326.729 815.892 326.729 809.636C326.729 802.644 328.385 796.756 331.697 791.972C335.009 787.188 339.241 783.232 344.393 780.104C349.729 776.976 355.617 774.4 362.057 772.376C368.497 770.168 374.845 768.236 381.101 766.58C384.965 765.476 388.553 764.464 391.865 763.544C395.361 762.44 398.397 761.336 400.973 760.232C403.733 758.944 405.849 757.564 407.321 756.092C408.977 754.62 409.805 752.964 409.805 751.124C409.805 745.42 407.689 741.372 403.457 738.98C399.225 736.588 393.245 735.392 385.517 735.392C379.629 735.392 374.477 736.956 370.061 740.084C365.829 743.028 363.161 747.996 362.057 754.988H330.041ZM409.805 782.036C406.493 783.508 402.905 784.888 399.041 786.176C395.361 787.464 391.497 788.66 387.449 789.764L385.241 790.316C381.745 791.42 378.341 792.524 375.029 793.628C371.901 794.732 369.049 796.02 366.473 797.492C364.081 798.78 362.057 800.344 360.401 802.184C358.929 804.024 358.193 806.14 358.193 808.532C358.193 814.052 359.757 818.008 362.885 820.4C366.197 822.792 369.785 823.988 373.649 823.988C379.905 823.988 386.253 821.872 392.693 817.64C399.133 813.408 404.837 807.152 409.805 798.872V782.036ZM473.38 710.828H505.12V721.04C511.008 716.808 517.172 713.68 523.612 711.656C530.236 709.448 536.86 708.344 543.484 708.344C557.652 708.344 568.6 712.3 576.328 720.212C584.056 727.94 587.92 738.428 587.92 751.676V848H556.456V753.884C556.456 747.076 554.984 742.292 552.04 739.532C549.096 736.772 545.048 735.392 539.896 735.392C535.112 735.392 530.604 736.312 526.372 738.152C522.14 739.808 518.46 742.108 515.332 745.052C512.204 747.812 509.72 751.124 507.88 754.988C506.04 758.668 505.12 762.532 505.12 766.58V848H473.38V710.828ZM643.377 660.044V692.06H611.913V660.044H643.377ZM643.377 710.828V848H611.913V710.828H643.377Z" fill="#100B00"/>
<circle cx="837" cy="184" r="81" fill="white"/>
</g>
</svg>
